<svg width="45" height="35" viewBox="0 0 45 35" fill="none" xmlns="http://www.w3.org/2000/svg">
<path d="M0 11.6667L9.06977 0H35.9302L45 11.6667L34.186 23.3333L31.7442 20.9314L40.814 11.3235L34.186 2.7451H11.8605L8.37209 6.86274H32.7907C33.1912 6.86673 33.5491 6.99597 34.0052 7.51953C34.4214 8.2188 34.3252 8.48426 34.3299 8.84115C34.3081 9.55756 34.108 10.051 34.0052 10.2539C33.8025 10.6458 33.8076 10.5835 33.4884 10.9804L25.1163 18.8725L31.7442 25.7353L22.6744 35L2.09302 13.7255H6.97674L22.6744 30.5392L25.814 27.451L17.4419 18.8725L25.814 11.6667H0Z" fill="#111111"/>
</svg>
